# xmcd
# Copyright (C) 1995-1998 Ti Kan
#
# Track frame offsets:
#       150
#       22365
#       36687
#       51042
#       72457
#       86940
#       104850
#       127140
#       149710
#       165565
#       185230
#
# Disc length: 2814 seconds
#
# Revision: 0
# Processed by: cddbd v1.5.2PL0 Copyright (c) Steve Scherf et al.
# Submitted via: CD-Import v1.0
#
DISCID=c00afc0b
DTITLE=Apocalyptica - Inquistion Symphony
DYEAR=1998
DGENRE=
TTITLE0=Harmageddon
TTITLE1=From Out Of Nowhere
TTITLE2=For Whom The Bell Tolls
TTITLE3=Nothing Else Matters
TTITLE4=Refuse/Resist
TTITLE5=M.b.
TTITLE6=Inquisition Symphony
TTITLE7=Fade To Black
TTITLE8=Domination
TTITLE9=Toreador
TTITLE10=One
EXTD=
EXTT0=
EXTT1=
EXTT2=
EXTT3=
EXTT4=
EXTT5=
EXTT6=
EXTT7=
EXTT8=
EXTT9=
EXTT10=
PLAYORDER=
